<svg aria-hidden="true" style="width:0;height:0;position:absolute;overflow:hidden" xmlns="http://www.w3.org/2000/svg"><defs><symbol id="icon-arrow" viewBox="0 0 32 32"><path d="M8.509 3.253A2.154 2.154 0 0 0 8 4.649v.024-.001c0 .531.184 1.04.509 1.416l8.621 9.925-8.621 9.92a2.163 2.163 0 0 0-.488 1.374v.042-.002c.003.525.187 1.027.509 1.4s.76.581 1.216.587a1.62 1.62 0 0 0 1.225-.561l.002-.002 9.851-11.341c.317-.374.509-.863.509-1.396v-.021.001c0-.533-.184-1.043-.509-1.419L10.973 3.254a1.634 1.634 0 0 0-1.231-.587h-.001a1.64 1.64 0 0 0-1.232.587z"/></symbol></defs></svg>